<?xml version="1.0" standalone="no"?>
<!DOCTYPE svg PUBLIC "-//W3C//DTD SVG 20010904//EN"
 "http://www.w3.org/TR/2001/REC-SVG-20010904/DTD/svg10.dtd">
<svg version="1.0" xmlns="http://www.w3.org/2000/svg"
 width="320.000000pt" height="320.000000pt" viewBox="0 0 320.000000 320.000000"
 preserveAspectRatio="xMidYMid meet">
<metadata>
Created by potrace 1.14, written by Peter Selinger 2001-2017
</metadata>
<g transform="translate(0.000000,320.000000) scale(0.100000,-0.100000)"
fill="#000000" stroke="none">
<path d="M2467 2711 c-239 -43 -260 -48 -276 -71 -10 -14 -98 -161 -196 -327
-99 -167 -182 -299 -185 -295 -4 4 -21 93 -39 197 -63 366 -61 355 -85 355
-24 0 -457 -77 -461 -82 -3 -3 285 -1641 290 -1646 3 -3 477 78 482 82 1 1
-16 101 -37 221 -22 121 -40 230 -40 242 0 25 115 218 130 218 5 0 122 -128
261 -285 138 -157 258 -287 266 -288 18 -5 503 80 503 87 0 4 -176 197 -390
430 -215 233 -390 428 -390 433 0 5 101 180 225 388 124 209 225 382 225 385
0 7 -1 7 -283 -44z"/>
<path d="M751 2400 c-117 -22 -215 -41 -218 -43 -2 -3 37 -238 87 -523 51
-286 92 -546 92 -580 1 -94 -39 -150 -128 -183 -73 -28 -243 -46 -321 -34 -76
12 -73 32 -30 -212 l32 -179 45 -9 c25 -4 122 -6 215 -3 94 3 668 7 1277 8
610 2 1108 6 1108 11 0 4 -114 7 -252 8 -139 0 -627 1 -1084 2 l-832 2 87 31
c117 41 175 76 246 149 106 107 152 239 141 405 -4 52 -51 340 -104 640 l-97
545 -25 2 c-14 1 -121 -16 -239 -37z"/>
<path d="M2943 653 c15 -2 39 -2 55 0 15 2 2 4 -28 4 -30 0 -43 -2 -27 -4z"/>
</g>
</svg>
